HIERARCHY
ROOT Hips
{
  OFFSET 0 0 0
  CHANNELS 6 Xposition Yposition Zposition Zrotation Xrotation Yrotation
  JOINT Spine
  {
    OFFSET 0 10.1816 0.131521
    CHANNELS 3 Zrotation Xrotation Yrotation
    JOINT Spine1
    {
      OFFSET 0 10.0835 -1.0008
      CHANNELS 3 Zrotation Xrotation Yrotation
      JOINT Spine2
      {
        OFFSET 0 9.10001 -1.37342
        CHANNELS 3 Zrotation Xrotation Yrotation
        JOINT Neck
        {
          OFFSET 0 16.6717 -2.51617
          CHANNELS 3 Zrotation Xrotation Yrotation
          JOINT Head
          {
            OFFSET 0 9.61788 1.68501
            CHANNELS 3 Zrotation Xrotation Yrotation
            End Site
            {
              OFFSET 0 0 0
            }
          }
        }
        JOINT LeftShoulder
        {
          OFFSET 4.57045 10.946 -2.62799
          CHANNELS 3 Zrotation Xrotation Yrotation
          JOINT LeftArm
          {
            OFFSET 10.5924 -0.524583 -2.23212
            CHANNELS 3 Zrotation Xrotation Yrotation
            JOINT LeftForeArm
            {
              OFFSET 27.8415 -8.94286e-05 3.74589e-05
              CHANNELS 3 Zrotation Xrotation Yrotation
              JOINT LeftHand
              {
                OFFSET 28.3288 -1.74407e-05 3.78045e-05
                CHANNELS 3 Zrotation Xrotation Yrotation
                End Site
                {
                  OFFSET 0 0 0
                }
              }
            }
          }
        }
        JOINT RightShoulder
        {
          OFFSET -4.56997 10.9462 -2.62802
          CHANNELS 3 Zrotation Xrotation Yrotation
          JOINT RightArm
          {
            OFFSET -10.5928 -0.524798 -2.2321
            CHANNELS 3 Zrotation Xrotation Yrotation
            JOINT RightForeArm
            {
              OFFSET -27.8415 -3.30792e-05 1.16763e-05
              CHANNELS 3 Zrotation Xrotation Yrotation
              JOINT RightHand
              {
                OFFSET -28.3288 0 5.5816e-05
                CHANNELS 3 Zrotation Xrotation Yrotation
                End Site
                {
                  OFFSET 0 0 0
                }
              }
            }
          }
        }
      }
    }
  }
  JOINT LeftUpLeg
  {
    OFFSET 8.20778 -6.75171 -1.59956
    CHANNELS 3 Zrotation Xrotation Yrotation
    JOINT LeftLeg
    {
      OFFSET 0 -44.3705 0.284643
      CHANNELS 3 Zrotation Xrotation Yrotation
      JOINT LeftFoot
      {
        OFFSET 0 -44.4279 -2.98219
        CHANNELS 3 Zrotation Xrotation Yrotation
        JOINT LeftToeBase
        {
          OFFSET 0 -8.72867 10.7106
          CHANNELS 3 Zrotation Xrotation Yrotation
          End Site
          {
            OFFSET 0 0 0
          }
        }
      }
    }
  }
  JOINT RightUpLeg
  {
    OFFSET -8.2078 -6.75166 -1.59956
    CHANNELS 3 Zrotation Xrotation Yrotation
    JOINT RightLeg
    {
      OFFSET 0 -44.3705 0.286156
      CHANNELS 3 Zrotation Xrotation Yrotation
      JOINT RightFoot
      {
        OFFSET 0 -44.4277 -2.98379
        CHANNELS 3 Zrotation Xrotation Yrotation
        JOINT RightToeBase
        {
          OFFSET 0 -8.72867 10.7106
          CHANNELS 3 Zrotation Xrotation Yrotation
          End Site
          {
            OFFSET 0 0 0
          }
        }
      }
    }
  }
}
MOTION
Frames:	11
Frame Time:	0.0333333
-0.00719113 99.3358 0.529362 -2.25432 -22.8717 -6.59765 -0.117609 7.69316 -0.843741 -0.571308 15.3895 -1.52486 -0.571308 15.3895 -1.52487 0.524066 -11.7798 2.6455 2.0524 -20.4959 1.77953 36.2773 -1.16002 -1.38076 -15.4111 -46.6553 -37.3272 2.01023 -15.6093 -27.2777 43.6745 7.66352 -10.0201 -34.3726 -6.54219 25.2184 -6.41625 -47.9049 18.4604 2.89634 -20.7157 27.2809 -44.6121 -6.96261 7.94149 72.8858 -57.1369 82.2658 179.77 56.5734 158.662 17.1397 -34.4074 4.60945 -2.8299 -46.3663 -4.71746 -98.5762 -53.6462 -113.431 -177.541 51.7809 -158.907 -5.2162 -29.7293 -1.13716 13.3302 -36.9653 14.2217 
-1.33625 100.916 0.40914 -0.81624 -24.1157 -6.34024 -0.708247 7.54339 -0.90735 -1.32345 15.0907 -1.39901 -1.32345 15.0907 -1.39901 0.892911 -11.0523 1.66702 2.74729 -19.749 1.12048 37.7061 -1.39591 -2.95628 -19.9176 -45.4139 -39.0557 2.80643 -13.9596 -24.8605 41.8156 8.08697 -13.4902 -31.1792 -4.45829 29.9987 -7.96023 -49.716 17.4705 1.78179 -18.9354 30.7581 -44.7479 -2.81336 7.01232 69.7829 -57.5846 77.9482 179.221 57.5635 163.456 10.5969 -29.7386 1.4359 -0.51759 -46.759 -2.77679 -97.0848 -56.4421 -110.803 -177.092 51.8084 -163.753 -4.55022 -27.1395 -0.603581 16.9003 -40.9932 18.0588 
-2.71755 103.942 -0.10619 1.49541 -25.322 -6.00937 -1.13914 7.54375 -1.09893 -1.44421 15.0871 -1.50991 -1.44421 15.0871 -1.50991 1.65979 -9.52678 -0.522439 4.22817 -18.1756 -0.405121 33.4442 -1.45294 -3.21891 -21.8678 -44.2078 -41.3858 2.87522 -12.1207 -22.2973 41.3373 7.72979 -17.4069 -31.642 -4.80756 33.0227 -0.23727 -51.3509 21.6056 -0.50402 -16.9389 39.4056 -45.0319 5.43839 5.31255 62.0823 -57.7293 69.6645 178.84 60.7827 166.625 6.04857 -24.011 -0.227499 1.7252 -46.9165 -1.00975 -92.6377 -58.7737 -105.041 -176.619 53.4471 -168.413 -4.45017 -23.3953 -0.169899 22.2315 -45.3116 23.9891 
-4.2059 108.484 -0.996215 3.95471 -26.2425 -5.23338 -1.47173 7.64689 -1.17379 -1.2248 15.287 -1.46992 -1.2248 15.287 -1.46992 2.65691 -7.47193 -3.68536 6.17101 -16.2158 -2.75536 27.1785 -1.01223 -3.22064 -22.7889 -42.6755 -43.8593 2.63644 -11.0715 -21.3498 42.3813 7.2751 -20.7334 -30.9154 -5.79307 34.6325 12.0014 -51.4282 30.829 -4.59484 -14.1764 47.9098 -44.6694 14.6563 4.505 50.2452 -56.9797 57.8464 178.542 66.5233 168.172 3.41006 -18.4412 -0.728296 3.17013 -46.2614 -0.582531 -84.1537 -60.0877 -95.062 -176.35 57.0381 -172.389 -4.19731 -18.9551 0.19007 29.1402 -49.5423 31.9068 
-5.94085 114.45 -2.09101 5.89425 -26.7371 -4.31034 -1.59485 7.81951 -0.996011 -0.855762 15.6288 -1.12367 -0.855764 15.6288 -1.12367 3.58785 -5.44077 -7.20214 8.05667 -14.4232 -5.545 21.8187 0.818914 -3.4747 -23.7911 -40.8687 -46.2698 2.50458 -11.3112 -21.437 43.8267 7.04561 -23.6281 -26.8255 -5.70032 35.1517 23.1471 -48.8952 41.5655 -9.51371 -10.3979 55.0642 -44.5651 23.1186 4.8124 37.5478 -54.8883 45.2985 177.505 74.2064 170.718 1.65965 -12.8184 -1.13675 4.13448 -44.0069 0.216575 -71.5693 -60.0319 -80.9512 -176.758 62.7785 -174.722 -3.24815 -14.3381 0.407331 36.6106 -53.2669 40.6967 
-8.12677 121.622 -3.13367 7.65321 -27.1706 -4.21606 -1.44774 8.07415 -0.703274 -0.195091 16.1398 -0.711694 -0.195093 16.1398 -0.711693 4.15815 -4.06624 -10.3723 9.51622 -12.9027 -8.19489 16.893 4.70803 -3.95663 -23.0925 -39.2561 -47.1544 1.69711 -12.5768 -18.9218 45.1711 4.8794 -27.3853 -22.0054 -4.51691 34.5847 32.8583 -43.7584 54.1396 -14.1819 -4.81576 59.2932 -46.731 30.6888 7.31407 26.4037 -51.6094 34.3749 171.701 81.6287 -179.396 -0.494002 -6.32037 -2.46922 6.30139 -40.237 3.09756 -56.5285 -58.2613 -64.2215 -178.547 70.5889 -174.693 -1.54159 -9.67259 0.437478 43.4949 -56.0501 49.5501 
-10.7613 129.615 -3.94518 9.24595 -27.7982 -5.07164 -1.06956 8.38493 -0.420266 0.898474 16.7657 -0.404163 0.89848 16.7657 -0.404166 4.26369 -3.67204 -12.9602 10.6354 -11.2617 -10.4168 11.8437 10.2634 -5.32318 -16.577 -38.9601 -47.1906 -1.76868 -14.3939 -6.60064 46.0878 -2.60473 -33.1977 -20.019 -3.3724 32.3656 42.3445 -34.8385 66.6612 -17.8154 2.02931 59.0894 -53.8026 36.2595 14.2475 17.0806 -47.7408 25.7263 111.711 87.4666 -111.637 -3.25379 4.38831 -4.67156 5.70885 -34.4793 6.70366 -41.3315 -54.4587 -47.1948 176.323 80.225 -171.409 0.803195 -4.70231 0.271356 49.9553 -57.8813 58.2183 
-14.0649 138.212 -4.5455 10.905 -28.326 -5.57576 -0.77388 8.64153 -0.124888 1.90136 17.283 -0.0795477 1.90136 17.283 -0.0795504 4.01412 -4.13905 -15.1991 11.6727 -9.54092 -12.34 9.11405 16.3077 -7.97825 -9.84057 -33.0484 -39.9334 -1.12734 -14.4825 -9.15523 42.0252 -6.28761 -28.1825 -20.4197 -2.1716 28.9052 49.5256 -23.6424 74.7849 -20.2669 8.40717 55.2593 -65.6568 38.024 24.4395 8.10632 -42.7143 18.2361 25.5599 81.1178 -16.2246 -6.07006 18.3125 -6.4254 1.8684 -23.9992 10.1446 -28.0714 -48.3026 -32.1344 32.6803 87.5658 -30.9874 3.50972 0.796844 -0.0752416 56.6843 -59.1379 66.672 
-18.7137 147.125 -5.16933 13.471 -28.3295 -5.4428 -0.89563 8.73326 0.101617 1.97334 17.4687 0.228474 1.97334 17.4687 0.228473 3.58706 -5.15323 -17.2754 12.5295 -8.59062 -14.1716 9.00903 21.3082 -10.6565 -4.27563 -23.7143 -31.4593 -0.817991 -12.9691 -17.4447 35.3245 -7.59532 -18.168 -20.1867 0.0721764 26.7228 52.695 -14.0678 79.9818 -20.2731 14.5153 47.7806 -78.6166 35.5818 32.772 -0.733069 -39.0108 11.7204 18.5568 73.7418 -0.745298 -8.39005 29.2351 -6.74675 -0.276358 -16.3302 10.9802 -19.6474 -41.6735 -21.2766 6.07204 76.1575 -8.67156 5.99294 6.26847 -0.327481 50.6813 -55.5128 59.3943 
-24.9998 155.772 -6.19741 16.7594 -27.5403 -6.13438 -1.31001 8.58977 0.132081 1.07616 17.1802 0.290841 1.07616 17.1802 0.29084 3.11072 -6.57111 -19.0076 12.7778 -9.09723 -15.8686 7.65621 24.2165 -11.1783 0.244996 -17.9586 -33.0195 -2.28819 -9.19528 -10.577 25.0473 -1.47949 -15.0466 -18.4037 2.73381 28.0162 51.0569 -10.1746 80.0017 -17.3282 15.2714 45.0961 -65.7758 32.7908 34.2369 -8.76014 -38.6083 6.027 18.3862 70.5433 6.71898 -10.1675 33.1894 -5.77302 -1.15492 -16.8467 7.08595 -14.9916 -35.8261 -13.8067 3.3295 66.333 -8.7905 8.24059 11.31 -0.193312 37.581 -46.8149 43.209 
-32.5918 163.535 -7.61034 18.536 -25.3689 -8.76217 -1.43651 8.1875 0.00293825 0.0938033 16.3735 0.12771 0.0938109 16.3735 0.127708 2.65544 -8.46952 -20.0662 12.2116 -10.8339 -17.2096 2.51198 25.2594 -8.84739 1.56743 -16.0421 -29.1626 -0.856611 -4.82871 -20.4305 7.78962 21.4395 -5.71835 -16.8256 4.23892 31.3494 44.7749 -10.7635 74.4098 -14.7945 13.9525 52.0433 -39.9421 32.1519 22.1058 -14.1741 -42.5802 1.34797 21.2711 71.9289 9.52166 -11.5296 32.2684 -4.325 -3.01699 -16.6932 6.57664 -10.8276 -31.1868 -8.8116 2.08414 57.864 -7.28611 10.8487 15.9309 -0.00701168 25.6399 -35.08 26.5932 
